grf
version=1
nRows=15
nColumns=37
inDegrees=no
endheader
time	ground_force_1_vx	ground_force_1_vy	ground_force_1_vz	ground_force_1_px	ground_force_1_py	ground_force_1_pz	ground_moment_1_mx	ground_moment_1_my	ground_moment_1_mz	ground_force_2_vx	ground_force_2_vy	ground_force_2_vz	ground_force_2_px	ground_force_2_py	ground_force_2_pz	ground_moment_2_mx	ground_moment_2_my	ground_moment_2_mz	ground_force_3_vx	ground_force_3_vy	ground_force_3_vz	ground_force_3_px	ground_force_3_py	ground_force_3_pz	ground_moment_3_mx	ground_moment_3_my	ground_moment_3_mz	ground_force_4_vx	ground_force_4_vy	ground_force_4_vz	ground_force_4_px	ground_force_4_py	ground_force_4_pz	ground_moment_4_mx	ground_moment_4_my	ground_moment_4_mz
      2.94000000	      0.00000000	     -0.00000000	      0.00000000	      0.00000000	      0.00000000	      0.00000000	      0.00000000	      0.00000000	      0.00000000	    -30.23144913	    111.76953125	   -650.14660645	   -210.95037947	  -1140.38726298	      0.00000000	      0.00000000	      0.00000000	   2606.35108222	    -44.26309463	   -146.45525930	   -653.20605469	   -210.07637226	   -658.78170118	      0.00000000	      0.00000000	     -0.00000000	  -4380.05555497	      0.00000000	     -0.00000000	      0.00000000	      0.00000000	      0.00000000	      0.00000000	      0.00000000	      0.00000000	      0.00000000
      2.95000000	      0.00000000	     -0.00000000	      0.00000000	      0.00000000	      0.00000000	      0.00000000	      0.00000000	      0.00000000	      0.00000000	    -36.39032745	    108.38634491	   -659.34204102	   -208.84480378	  -1140.05443215	      0.00000000	      0.00000000	      0.00000000	   2683.46348569	    -48.98331314	   -143.18063140	   -670.00726318	   -208.44200558	   -657.62956288	      0.00000000	      0.00000000	     -0.00000000	  -4851.17527770	      0.00000000	     -0.00000000	      0.00000000	      0.00000000	      0.00000000	      0.00000000	      0.00000000	      0.00000000	      0.00000000
      2.96000000	      0.00000000	     -0.00000000	      0.00000000	      0.00000000	      0.00000000	      0.00000000	      0.00000000	      0.00000000	      0.00000000	    -43.35238647	    105.45302582	   -666.91241455	   -207.15033579	  -1140.48353065	      0.00000000	      0.00000000	      0.00000000	   2778.28765549	    -55.00845179	   -138.48454044	   -681.48284912	   -206.23708562	   -657.72361491	      0.00000000	      0.00000000	     -0.00000000	  -5149.08495070	      0.00000000	     -0.00000000	      0.00000000	      0.00000000	      0.00000000	      0.00000000	      0.00000000	      0.00000000	      0.00000000
      2.97000000	      0.00000000	     -0.00000000	      0.00000000	      0.00000000	      0.00000000	      0.00000000	      0.00000000	      0.00000000	      0.00000000	    -52.33399963	    104.97934723	   -675.28002930	   -205.65044956	  -1141.24204296	      0.00000000	      0.00000000	      0.00000000	   2576.39988934	    -62.60162174	   -133.46609223	   -689.52691650	   -204.95047676	   -657.87400489	      0.00000000	      0.00000000	     -0.00000000	  -5595.31486614	      0.00000000	     -0.00000000	      0.00000000	      0.00000000	      0.00000000	      0.00000000	      0.00000000	      0.00000000	      0.00000000
      2.98000000	      0.00000000	     -0.00000000	      0.00000000	      0.00000000	      0.00000000	      0.00000000	      0.00000000	      0.00000000	      0.00000000	    -62.69816208	    105.07633972	   -682.22705078	   -203.45303217	  -1141.30116354	      0.00000000	      0.00000000	      0.00000000	   1774.19879492	    -71.75454519	   -130.46772452	   -699.65069580	   -202.80868637	   -657.75751578	      0.00000000	      0.00000000	     -0.00000000	  -5656.51503676	      0.00000000	     -0.00000000	      0.00000000	      0.00000000	      0.00000000	      0.00000000	      0.00000000	      0.00000000	      0.00000000
      2.99000000	      0.00000000	     -0.00000000	      0.00000000	      0.00000000	      0.00000000	      0.00000000	      0.00000000	      0.00000000	      0.00000000	    -76.31201172	    104.85211182	   -688.78698730	   -201.84744432	  -1141.89267233	      0.00000000	      0.00000000	      0.00000000	   1395.55540113	    -84.34673878	   -130.00951780	   -707.67950439	   -200.17627459	   -657.34077316	      0.00000000	      0.00000000	     -0.00000000	  -5567.76006389	      0.00000000	     -0.00000000	      0.00000000	      0.00000000	      0.00000000	      0.00000000	      0.00000000	      0.00000000	      0.00000000
      3.00000000	      0.00000000	     -0.00000000	      0.00000000	      0.00000000	      0.00000000	      0.00000000	      0.00000000	      0.00000000	      0.00000000	    -92.17182159	    103.23544312	   -697.45928955	   -200.67159953	  -1143.22272945	      0.00000000	      0.00000000	      0.00000000	    877.72162940	    -99.26292230	   -131.24602838	   -712.91510010	   -198.91609316	   -656.47512937	      0.00000000	      0.00000000	     -0.00000000	  -5314.34131352	      0.00000000	     -0.00000000	      0.00000000	      0.00000000	      0.00000000	      0.00000000	      0.00000000	      0.00000000	      0.00000000
      3.01000000	      0.00000000	     -0.00000000	      0.00000000	      0.00000000	      0.00000000	      0.00000000	      0.00000000	      0.00000000	      0.00000000	   -107.12791443	     99.21604156	   -692.64093018	   -198.22211166	  -1142.88319305	      0.00000000	      0.00000000	      0.00000000	    106.78170490	   -113.07869537	   -132.66375238	   -707.10430908	   -196.30115540	   -656.66589791	      0.00000000	      0.00000000	     -0.00000000	  -4540.70501231	      0.00000000	     -0.00000000	      0.00000000	      0.00000000	      0.00000000	      0.00000000	      0.00000000	      0.00000000	      0.00000000
      3.02000000	      0.00000000	     -0.00000000	      0.00000000	      0.00000000	      0.00000000	      0.00000000	      0.00000000	      0.00000000	      0.00000000	   -119.24581146	     93.13172913	   -674.72497559	   -196.28543893	  -1143.87766952	      0.00000000	      0.00000000	     -0.00000000	   -360.62584054	   -123.66284749	   -130.26976999	   -687.18621826	   -194.14122804	   -654.41868968	      0.00000000	      0.00000000	     -0.00000000	  -3760.15644200	      0.00000000	     -0.00000000	      0.00000000	      0.00000000	      0.00000000	      0.00000000	      0.00000000	      0.00000000	      0.00000000
      3.03000000	      0.00000000	     -0.00000000	      0.00000000	      0.00000000	      0.00000000	      0.00000000	      0.00000000	      0.00000000	      0.00000000	   -120.11176300	     81.47428894	   -629.13018799	   -193.46734980	  -1145.12510821	      0.00000000	      0.00000000	     -0.00000000	  -1065.78336936	   -123.17439041	   -122.11388622	   -634.60003662	   -191.99903515	   -652.84588019	      0.00000000	      0.00000000	     -0.00000000	  -2566.25076550	      0.00000000	     -0.00000000	      0.00000000	      0.00000000	      0.00000000	      0.00000000	      0.00000000	      0.00000000	      0.00000000
      3.04000000	      0.00000000	     -0.00000000	      0.00000000	      0.00000000	      0.00000000	      0.00000000	      0.00000000	      0.00000000	      0.00000000	    -95.32418060	     63.70479965	   -522.91381836	   -189.79226325	  -1147.31916446	      0.00000000	      0.00000000	     -0.00000000	  -1361.65804201	    -92.41450176	   -100.25654198	   -525.24804688	   -189.43686705	   -649.42923284	      0.00000000	      0.00000000	     -0.00000000	  -1119.56786828	      0.00000000	     -0.00000000	      0.00000000	      0.00000000	      0.00000000	      0.00000000	      0.00000000	      0.00000000	      0.00000000
      3.05000000	      0.00000000	     -0.00000000	      0.00000000	      0.00000000	      0.00000000	      0.00000000	      0.00000000	      0.00000000	      0.00000000	    -52.30791092	     31.99192238	   -337.19894409	   -181.66301773	  -1152.21555116	      0.00000000	      0.00000000	     -0.00000000	  -1128.85413700	    -41.23298507	    -55.61493121	   -333.45199585	   -183.23610627	   -644.93774641	      0.00000000	      0.00000000	      0.00000000	     14.59223759	      0.00000000	     -0.00000000	      0.00000000	      0.00000000	      0.00000000	      0.00000000	      0.00000000	      0.00000000	      0.00000000
      3.06000000	      0.00000000	     -0.00000000	      0.00000000	      0.00000000	      0.00000000	      0.00000000	      0.00000000	      0.00000000	      0.00000000	     -6.38364029	      8.01639843	   -146.37092590	   -173.64949083	  -1159.80745869	      0.00000000	      0.00000000	     -0.00000000	   -408.23577971	      5.05929140	    -10.05536864	   -130.90010071	   -178.47636557	   -632.79186358	      0.00000000	      0.00000000	      0.00000000	    278.32482441	      0.00000000	     -0.00000000	      0.00000000	      0.00000000	      0.00000000	      0.00000000	      0.00000000	      0.00000000	      0.00000000
      3.07000000	      0.00000000	     -0.00000000	      0.00000000	      0.00000000	      0.00000000	      0.00000000	      0.00000000	      0.00000000	      0.00000000	      0.00000000	     -0.00000000	      0.00000000	      0.00000000	      0.00000000	      0.00000000	      0.00000000	      0.00000000	      0.00000000	      0.00000000	     -0.00000000	      0.00000000	      0.00000000	      0.00000000	      0.00000000	      0.00000000	      0.00000000	      0.00000000	      0.00000000	     -0.00000000	      0.00000000	      0.00000000	      0.00000000	      0.00000000	      0.00000000	      0.00000000	      0.00000000
      3.08000000	      0.00000000	     -0.00000000	      0.00000000	      0.00000000	      0.00000000	      0.00000000	      0.00000000	      0.00000000	      0.00000000	      0.00000000	     -0.00000000	      0.00000000	      0.00000000	      0.00000000	      0.00000000	      0.00000000	      0.00000000	      0.00000000	      0.00000000	     -0.00000000	      0.00000000	      0.00000000	      0.00000000	      0.00000000	      0.00000000	      0.00000000	      0.00000000	      0.00000000	     -0.00000000	      0.00000000	      0.00000000	      0.00000000	      0.00000000	      0.00000000	      0.00000000	      0.00000000
